<svg width="28" height="25" viewBox="0 0 28 25" fill="none" xmlns="http://www.w3.org/2000/svg">
<path d="M27.7708 16.0151C27.2129 17.3425 26.5282 18.6136 25.7261 19.8109C24.3976 21.8211 22.5261 24.3241 20.207 24.3454C18.1459 24.3643 17.6165 23.0117 14.8196 23.0269C12.0228 23.042 11.4387 24.3691 9.37711 24.3502C7.05803 24.3289 5.28419 22.0686 3.95602 20.0587C0.242111 14.4382 -0.145739 7.84212 2.14444 4.3356C3.7724 1.84349 6.33961 0.38494 8.75425 0.38494C11.2125 0.38494 12.758 1.72533 14.7904 1.72533C16.7618 1.72533 17.9637 0.382812 20.8055 0.382812C22.9538 0.382812 25.2301 1.54544 26.8521 3.55696C21.5373 6.4517 22.4011 13.998 27.7708 16.0151Z" fill="white"/>
</svg>
